<?xml version="1.0" encoding="iso-8859-1"?>
<!-- Generator: Adobe Illustrator 19.0.0, SVG Export Plug-In . SVG Version: 6.00 Build 0)  -->
<svg version="1.1" id="Capa_1" xmlns="http://www.w3.org/2000/svg" xmlns:xlink="http://www.w3.org/1999/xlink" x="0px" y="0px"
	 viewBox="0 0 512 512" style="enable-background:new 0 0 512 512;" xml:space="preserve">
<g>
	<g>
		<g>
			<path d="M0,512h288V224H0V512z M32,256h224v224H32V256z"/>
			<path d="M321.6,0l27.312,27.312c6.246,6.248,6.246,16.376,0,22.624l-33.92,33.952l22.608,22.624l33.936-33.936
				C382.187,61.935,387.228,46.912,385.152,32H480v94.848c-14.899-2.014-29.887,3.011-40.56,13.6L405.488,174.4l22.624,22.624
				l33.968-33.936c6.322-6.049,16.286-6.049,22.608,0L512,190.4V0H321.6z"/>
			<rect x="321.61" y="248.921" transform="matrix(-0.7071 -0.7071 0.7071 -0.7071 389.0084 690.976)" width="32" height="32"/>
			<rect x="366.874" y="203.644" transform="matrix(-0.7071 -0.7071 0.7071 -0.7071 498.2953 645.6893)" width="32" height="32"/>
			<rect x="231.094" y="158.362" transform="matrix(0.7071 0.7071 -0.7071 0.7071 195.6641 -123.6527)" width="32" height="32"/>
			<rect x="276.358" y="113.126" transform="matrix(0.7071 -0.7071 0.7071 0.7071 -5.676 244.5482)" width="32" height="32"/>
			<polygon points="96,352 64,352 64,448 160,448 160,416 96,416 			"/>
		</g>
	</g>
</g>
<g>
</g>
<g>
</g>
<g>
</g>
<g>
</g>
<g>
</g>
<g>
</g>
<g>
</g>
<g>
</g>
<g>
</g>
<g>
</g>
<g>
</g>
<g>
</g>
<g>
</g>
<g>
</g>
<g>
</g>
</svg>
