<?xml version="1.0" encoding="UTF-8" standalone="no"?>
<!-- Generator: Adobe Illustrator 19.0.0, SVG Export Plug-In . SVG Version: 6.00 Build 0)  -->

<svg
   xmlns:dc="http://purl.org/dc/elements/1.1/"
   xmlns:cc="http://creativecommons.org/ns#"
   xmlns:rdf="http://www.w3.org/1999/02/22-rdf-syntax-ns#"
   xmlns:svg="http://www.w3.org/2000/svg"
   xmlns="http://www.w3.org/2000/svg"
   xmlns:xlink="http://www.w3.org/1999/xlink"
   xmlns:sodipodi="http://sodipodi.sourceforge.net/DTD/sodipodi-0.dtd"
   xmlns:inkscape="http://www.inkscape.org/namespaces/inkscape"
   version="1.1"
   id="Capa_1"
   x="0px"
   y="0px"
   viewBox="0 0 51.997 51.997"
   style="enable-background:new 0 0 51.997 51.997;"
   xml:space="preserve"
   sodipodi:docname="heart_new.svg"
   inkscape:version="0.92.1 r15371"><metadata
     id="metadata49"><rdf:RDF><cc:Work
         rdf:about=""><dc:format>image/svg+xml</dc:format><dc:type
           rdf:resource="http://purl.org/dc/dcmitype/StillImage" /><dc:title></dc:title></cc:Work></rdf:RDF></metadata><defs
     id="defs47"><linearGradient
       inkscape:collect="always"
       id="linearGradient862"><stop
         style="stop-color:#ffffff;stop-opacity:1;"
         offset="0"
         id="stop858" /><stop
         style="stop-color:#ffffff;stop-opacity:0;"
         offset="1"
         id="stop860" /></linearGradient><linearGradient
       inkscape:collect="always"
       xlink:href="#linearGradient862"
       id="linearGradient864"
       x1="2.0173155"
       y1="25.629733"
       x2="49.983079"
       y2="25.629733"
       gradientUnits="userSpaceOnUse" /></defs><sodipodi:namedview
     pagecolor="#ffffff"
     bordercolor="#666666"
     borderopacity="1"
     objecttolerance="10"
     gridtolerance="10"
     guidetolerance="10"
     inkscape:pageopacity="0"
     inkscape:pageshadow="2"
     inkscape:window-width="1366"
     inkscape:window-height="705"
     id="namedview45"
     showgrid="false"
     inkscape:zoom="10.308287"
     inkscape:cx="32.573873"
     inkscape:cy="27.905988"
     inkscape:window-x="-8"
     inkscape:window-y="-8"
     inkscape:window-maximized="1"
     inkscape:current-layer="g12" /><g
     id="g12"><path
       d="M51.911,16.242C51.152,7.888,45.239,1.827,37.839,1.827c-4.93,0-9.444,2.653-11.984,6.905   c-2.517-4.307-6.846-6.906-11.697-6.906c-7.399,0-13.313,6.061-14.071,14.415c-0.06,0.369-0.306,2.311,0.442,5.478   c1.078,4.568,3.568,8.723,7.199,12.013l18.115,16.439l18.426-16.438c3.631-3.291,6.121-7.445,7.199-12.014   C52.216,18.553,51.97,16.611,51.911,16.242z M49.521,21.261c-0.984,4.172-3.265,7.973-6.59,10.985L25.855,47.481L9.072,32.25   c-3.331-3.018-5.611-6.818-6.596-10.99c-0.708-2.997-0.417-4.69-0.416-4.701l0.015-0.101C2.725,9.139,7.806,3.826,14.158,3.826   c4.687,0,8.813,2.88,10.771,7.515l0.921,2.183l0.921-2.183c1.927-4.564,6.271-7.514,11.069-7.514   c6.351,0,11.433,5.313,12.096,12.727C49.938,16.57,50.229,18.264,49.521,21.261z"
       id="path10"
       style="fill:#ffffff" /></g><g
     id="g14" /><g
     id="g16" /><g
     id="g18" /><g
     id="g20" /><g
     id="g22" /><g
     id="g24" /><g
     id="g26" /><g
     id="g28" /><g
     id="g30" /><g
     id="g32" /><g
     id="g34" /><g
     id="g36" /><g
     id="g38" /><g
     id="g40" /><g
     id="g42" /><path
     style="fill:#00ced1;fill-opacity:1;stroke:url(#linearGradient864);stroke-width:0.097;stroke-miterlimit:4;stroke-dasharray:0.58200002,0.097;stroke-dashoffset:0;stroke-opacity:1"
     d="M 17.335568,39.694632 C 12.693671,35.482564 8.4802444,31.609074 7.9723972,31.086879 4.8646926,27.89137 2.8083634,23.763817 2.2033167,19.506931 2.0202218,18.218743 2.0198807,17.189056 2.2020886,15.799097 2.6413694,12.448072 3.9167093,9.6769141 6.0472066,7.4441228 7.8563841,5.5480791 10.018797,4.4023521 12.55917,3.993842 c 1.150977,-0.1850853 3.184149,-0.075222 4.38836,0.2371266 1.961124,0.5086771 3.960908,1.7125784 5.418532,3.2620421 1.218495,1.2952683 2.160018,2.8928903 3.127574,5.3070243 0.154959,0.386635 0.315191,0.691978 0.356071,0.678542 0.04088,-0.01344 0.347998,-0.660316 0.682483,-1.43751 0.759778,-1.765385 1.272579,-2.665856 2.112533,-3.7095783 1.608785,-1.9990654 3.866562,-3.4546789 6.370849,-4.1073545 1.261943,-0.3288923 3.356023,-0.4164196 4.633648,-0.193675 4.312364,0.7518287 7.773087,3.9154461 9.401815,8.5946588 0.682287,1.960158 1.004501,4.254462 0.841973,5.995184 -0.430804,4.614002 -2.614913,9.185195 -6.052022,12.666472 -0.890275,0.901716 -17.88052,16.0752 -17.993736,16.069673 -0.03953,-0.0019 -3.869786,-3.449746 -8.511682,-7.661815 z"
     id="path51"
     inkscape:connector-curvature="0" /></svg>