<?xml version="1.0" encoding="UTF-8" standalone="no"?>
<!-- Generator: Adobe Illustrator 19.1.0, SVG Export Plug-In . SVG Version: 6.00 Build 0)  -->

<svg
   xmlns:dc="http://purl.org/dc/elements/1.1/"
   xmlns:cc="http://creativecommons.org/ns#"
   xmlns:rdf="http://www.w3.org/1999/02/22-rdf-syntax-ns#"
   xmlns:svg="http://www.w3.org/2000/svg"
   xmlns="http://www.w3.org/2000/svg"
   xmlns:sodipodi="http://sodipodi.sourceforge.net/DTD/sodipodi-0.dtd"
   xmlns:inkscape="http://www.inkscape.org/namespaces/inkscape"
   version="1.1"
   id="Capa_1"
   x="0px"
   y="0px"
   viewBox="0 0 478.2 478.2"
   style="enable-background:new 0 0 478.2 478.2;"
   xml:space="preserve"
   sodipodi:docname="up_new.svg"
   inkscape:version="0.92.1 r15371"><metadata
     id="metadata3808"><rdf:RDF><cc:Work
         rdf:about=""><dc:format>image/svg+xml</dc:format><dc:type
           rdf:resource="http://purl.org/dc/dcmitype/StillImage" /><dc:title></dc:title></cc:Work></rdf:RDF></metadata><defs
     id="defs3806" /><sodipodi:namedview
     pagecolor="#ffffff"
     bordercolor="#666666"
     borderopacity="1"
     objecttolerance="10"
     gridtolerance="10"
     guidetolerance="10"
     inkscape:pageopacity="0"
     inkscape:pageshadow="2"
     inkscape:window-width="1366"
     inkscape:window-height="705"
     id="namedview3804"
     showgrid="false"
     inkscape:zoom="0.42967786"
     inkscape:cx="124.42915"
     inkscape:cy="211.07525"
     inkscape:window-x="-8"
     inkscape:window-y="-8"
     inkscape:window-maximized="1"
     inkscape:current-layer="Capa_1" /><g
     id="g3771"
     style="fill:#000080"><path
       d="M457.575,325.1c9.8-12.5,14.5-25.9,13.9-39.7c-0.6-15.2-7.4-27.1-13-34.4c6.5-16.2,9-41.7-12.7-61.5   c-15.9-14.5-42.9-21-80.3-19.2c-26.3,1.2-48.3,6.1-49.2,6.3h-0.1c-5,0.9-10.3,2-15.7,3.2c-0.4-6.4,0.7-22.3,12.5-58.1   c14-42.6,13.2-75.2-2.6-97c-16.6-22.9-43.1-24.7-50.9-24.7c-7.5,0-14.4,3.1-19.3,8.8c-11.1,12.9-9.8,36.7-8.4,47.7   c-13.2,35.4-50.2,122.2-81.5,146.3c-0.6,0.4-1.1,0.9-1.6,1.4c-9.2,9.7-15.4,20.2-19.6,29.4c-5.9-3.2-12.6-5-19.8-5h-61   c-23,0-41.6,18.7-41.6,41.6v162.5c0,23,18.7,41.6,41.6,41.6h61c8.9,0,17.2-2.8,24-7.6l23.5,2.8c3.6,0.5,67.6,8.6,133.3,7.3   c11.9,0.9,23.1,1.4,33.5,1.4c17.9,0,33.5-1.4,46.5-4.2c30.6-6.5,51.5-19.5,62.1-38.6c8.1-14.6,8.1-29.1,6.8-38.3   c19.9-18,23.4-37.9,22.7-51.9C461.275,337.1,459.475,330.2,457.575,325.1z M48.275,447.3c-8.1,0-14.6-6.6-14.6-14.6V270.1   c0-8.1,6.6-14.6,14.6-14.6h61c8.1,0,14.6,6.6,14.6,14.6v162.5c0,8.1-6.6,14.6-14.6,14.6h-61V447.3z M431.975,313.4   c-4.2,4.4-5,11.1-1.8,16.3c0,0.1,4.1,7.1,4.6,16.7c0.7,13.1-5.6,24.7-18.8,34.6c-4.7,3.6-6.6,9.8-4.6,15.4c0,0.1,4.3,13.3-2.7,25.8   c-6.7,12-21.6,20.6-44.2,25.4c-18.1,3.9-42.7,4.6-72.9,2.2c-0.4,0-0.9,0-1.4,0c-64.3,1.4-129.3-7-130-7.1h-0.1l-10.1-1.2   c0.6-2.8,0.9-5.8,0.9-8.8V270.1c0-4.3-0.7-8.5-1.9-12.4c1.8-6.7,6.8-21.6,18.6-34.3c44.9-35.6,88.8-155.7,90.7-160.9   c0.8-2.1,1-4.4,0.6-6.7c-1.7-11.2-1.1-24.9,1.3-29c5.3,0.1,19.6,1.6,28.2,13.5c10.2,14.1,9.8,39.3-1.2,72.7   c-16.8,50.9-18.2,77.7-4.9,89.5c6.6,5.9,15.4,6.2,21.8,3.9c6.1-1.4,11.9-2.6,17.4-3.5c0.4-0.1,0.9-0.2,1.3-0.3   c30.7-6.7,85.7-10.8,104.8,6.6c16.2,14.8,4.7,34.4,3.4,36.5c-3.7,5.6-2.6,12.9,2.4,17.4c0.1,0.1,10.6,10,11.1,23.3   C444.875,295.3,440.675,304.4,431.975,313.4z"
       id="path3769"
       style="fill:#000080" /></g><g
     id="g3773" /><g
     id="g3775" /><g
     id="g3777" /><g
     id="g3779" /><g
     id="g3781" /><g
     id="g3783" /><g
     id="g3785" /><g
     id="g3787" /><g
     id="g3789" /><g
     id="g3791" /><g
     id="g3793" /><g
     id="g3795" /><g
     id="g3797" /><g
     id="g3799" /><g
     id="g3801" /><path
     style="fill:#0000ff;stroke-width:2.02627134"
     d="m 251.66289,448.12672 c -41.49586,-1.23695 -83.29999,-4.27498 -96.24789,-6.9946 -3.98852,-0.83779 -4.04737,-2.35273 -3.7253,-95.90257 0.37923,-110.1537 -1.20117,-101.45765 23.10583,-127.13849 23.95176,-25.30553 45.38945,-62.06682 70.91622,-121.606895 12.29995,-28.689109 12.99631,-31.177583 13.70294,-48.968104 l 0.74447,-18.743009 h 5.58357 c 6.60663,0 17.2855,6.82741 23.21986,14.845346 3.65186,4.934025 4.23607,8.581838 4.21873,26.341526 -0.0178,18.353268 -0.95674,23.725981 -8.55904,48.982196 -13.70743,45.53859 -15.36771,65.16264 -6.7166,79.38825 6.24936,10.27625 14.59451,11.81202 37.37064,6.87739 55.90662,-12.11263 104.30618,-8.15336 115.85848,9.47769 4.35622,6.64844 4.3752,20.12757 0.0401,28.51066 -4.61939,8.93292 -4.08383,12.33947 3.65008,23.21736 11.64827,16.38354 11.09068,29.04824 -1.96185,44.5603 -5.70448,6.77938 -5.81133,10.58524 -0.79037,28.14983 3.81891,13.35949 0.34912,23.66557 -12.56471,37.32005 l -10.12219,10.70272 1.38872,11.11507 c 2.46145,19.70079 -5.81143,32.96952 -26.16009,41.95766 -22.18534,9.79941 -37.9784,10.73873 -132.95162,7.90762 z"
     id="path3810"
     inkscape:connector-curvature="0" /><path
     style="fill:#0000ff;stroke-width:2.02627134"
     d="m 38.904408,442.13238 c -3.92667,-3.92667 -4.052543,-6.75423 -4.052543,-91.03513 v -86.9826 l 5.338939,-4.19961 c 4.893805,-3.84947 8.0303,-4.19961 37.619227,-4.19961 31.248759,0 38.840339,1.22702 42.620769,6.88872 0.81877,1.22623 1.50263,41.6141 1.5197,89.75083 l 0.031,87.52134 -4.5034,3.1543 c -3.65408,2.55942 -11.10597,3.15431 -39.512291,3.15431 -32.307194,0 -35.32163,-0.31274 -39.061431,-4.05255 z"
     id="path3812"
     inkscape:connector-curvature="0" /><path
     style="fill:#0000ff;stroke-width:0.35819754"
     d="m 122.03984,356.57089 c -0.001,-41.14717 -0.45651,-80.12583 -1.04176,-89.18135 -0.32862,-5.08465 -0.58208,-5.7242 -2.94779,-7.43791 -2.95929,-2.14369 -8.24135,-3.37578 -16.78469,-3.91517 l -4.477474,-0.28269 6.999144,-0.0525 c 7.64664,-0.0574 9.8796,0.28263 12.6961,1.93321 3.41243,1.99982 6.22665,6.04598 6.95843,10.00453 0.27225,1.47275 0.39024,21.58542 0.39024,66.52079 v 64.40977 h -0.89549 -0.8955 l -0.001,-41.99866 z"
     id="path3822"
     inkscape:connector-curvature="0" /><path
     style="fill:#0000ff;stroke-width:0.35819754"
     d="m 151.10826,333.0194 c -0.0429,-41.86295 -0.19837,-66.63551 -0.4281,-68.22515 -0.19838,-1.37274 -0.62671,-3.59799 -0.95182,-4.945 l -0.59113,-2.4491 1.55876,-4.65516 c 3.79293,-11.32741 12.24818,-25.28444 18.40308,-30.37785 0.81277,-0.6726 3.14828,-2.84865 5.19001,-4.83567 2.04173,-1.98701 3.65362,-3.42082 3.58197,-3.18625 -0.0716,0.23458 -2.79309,3.21658 -6.04766,6.62666 -7.20976,7.55426 -9.83148,10.54223 -11.77212,13.41666 -4.5092,6.67892 -6.54671,14.99233 -7.56385,30.86181 -0.53467,8.342 -0.77651,27.30225 -1.05628,82.81335 l -0.25545,50.68495 z"
     id="path3824"
     inkscape:connector-curvature="0" /><path
     style="fill:#0000ff;stroke-width:0.25328392"
     d="m 428.46088,251.9415 c 0.10349,-2.55674 0.72896,-4.57694 2.54864,-8.23173 2.29042,-4.60027 3.14363,-8.16056 3.34494,-13.95788 0.29159,-8.3975 -1.36928,-13.73847 -5.62079,-18.07513 -6.74693,-6.88204 -19.59105,-11.19372 -38.6258,-12.96641 -5.84035,-0.5439 -22.70976,-0.61977 -29.38093,-0.13213 -15.11173,1.10461 -26.4334,2.70743 -44.19804,6.25718 -9.20439,1.83923 -14.8,2.78712 -15.35696,2.60147 -0.42635,-0.14212 6.59474,-1.80968 12.44419,-2.95558 2.85578,-0.55945 8.09875,-1.58964 11.65106,-2.28932 18.11128,-3.5673 33.89371,-5.16239 51.03671,-5.15817 14.58825,0.004 25.64701,1.26432 35.02458,3.99286 13.1026,3.81241 21.20609,10.78681 23.88,20.55272 0.84412,3.08299 0.96161,8.27114 0.26925,11.88998 -0.81087,4.23831 -2.21561,8.01889 -4.36437,11.74587 -1.45619,2.52571 -2.01451,4.08633 -2.40637,6.72627 l -0.33837,2.27956 z"
     id="path3826"
     inkscape:connector-curvature="0" /><path
     style="fill:#0000ff;stroke-width:0.25328392"
     d="m 288.54102,206.89657 c -2.81997,-0.84091 -4.94597,-2.09112 -6.95879,-4.09215 -1.66905,-1.65927 -4.14841,-5.06075 -3.88259,-5.32657 0.0655,-0.0655 0.54719,0.5023 1.07032,1.26186 1.34151,1.94782 4.56808,4.95065 6.62969,6.16998 0.96157,0.56871 2.77411,1.37963 4.02787,1.80204 2.62883,0.88569 1.94321,1.02865 -0.8865,0.18484 z"
     id="path3828"
     inkscape:connector-curvature="0" /><path
     style="fill:#0000ff;stroke-width:0.25328392"
     d=""
     id="path3830"
     inkscape:connector-curvature="0" /><path
     style="fill:#0000ff;stroke-width:0.25328392"
     d="m 276.38549,195.26923 c -3.85021,-8.22482 -4.61909,-18.0737 -2.51615,-32.23038 0.49235,-3.31442 2.34361,-12.6656 2.44659,-12.35835 0.0564,0.16822 -0.18844,1.7639 -0.54405,3.54597 -3.21921,16.13257 -3.34657,29.25404 -0.36653,37.76268 0.42448,1.21199 1.14698,2.91598 1.60555,3.78664 0.45856,0.87067 0.72553,1.58303 0.59326,1.58303 -0.13227,0 -0.68067,-0.94032 -1.21867,-2.08959 z"
     id="path3832"
     inkscape:connector-curvature="0" /><path
     style="fill:#0000ff;stroke-width:0.25328392"
     d="m 283.49534,123.53654 c -0.011,-0.17918 0.88197,-3.37056 1.98438,-7.09195 5.87687,-19.8386 7.07068,-25.61629 7.61651,-36.861556 0.48107,-9.911328 0.16322,-23.775993 -0.64244,-28.023108 -0.85351,-4.49931 -2.43267,-7.320192 -6.42841,-11.48319 -5.21795,-5.436357 -11.47686,-9.49655 -16.71113,-10.840603 -1.42657,-0.366314 -2.76646,-0.481931 -5.58517,-0.481931 h -3.70834 l -0.46045,12.021878 c -0.25325,6.612033 -0.54043,12.396403 -0.63818,12.854158 -0.38848,1.819148 -0.83956,-6.447693 -0.71004,-13.012865 0.13027,-6.603944 0.46116,-9.453716 1.41486,-12.185376 l 0.46229,-1.32414 2.32705,0.04855 c 4.55096,0.09494 10.60496,1.749297 15.24312,4.165428 9.76358,5.086091 15.37515,13.961738 17.38215,27.492798 0.61477,4.144715 0.61315,14.452517 -0.003,19.583218 -1.39263,11.595183 -3.57184,20.797896 -8.75676,36.979449 -2.81935,8.79889 -2.75812,8.6196 -2.78638,8.15924 z"
     id="path3834"
     inkscape:connector-curvature="0" /><path
     style="fill:#0000ff;stroke-width:0.25328392"
     d="m 194.82598,192.76666 c 0,-0.0635 1.63763,-2.59954 3.63917,-5.63557 17.99501,-27.2956 39.0369,-70.21152 55.93263,-114.077216 1.29586,-3.364398 2.39078,-5.943213 2.43316,-5.730701 0.20256,1.015869 -3.54878,11.03845 -8.50599,22.725734 -18.6022,43.857233 -33.75066,73.569193 -49.74933,97.577623 -3.13118,4.69882 -3.74964,5.54662 -3.74964,5.14013 z"
     id="path3836"
     inkscape:connector-curvature="0" /><path
     style="fill:#0000ff;stroke-width:0.12664196"
     d="m 276.31246,150.79505 c -0.0876,-0.46391 0.46466,-3.05703 1.70925,-8.0251 1.54727,-6.17633 5.32817,-19.66585 5.40378,-19.27968 0.024,0.12274 0.0964,0.19061 0.16075,0.15082 0.1535,-0.0949 0.14831,0.0972 -0.0142,0.52456 -0.26439,0.69542 -2.42225,8.12566 -3.40665,11.73026 -1.14011,4.17482 -2.39777,9.2153 -3.21607,12.88954 -0.47048,2.11246 -0.56256,2.40302 -0.63689,2.0096 z"
     id="path3838"
     inkscape:connector-curvature="0" /><path
     style="fill:#0000ff;stroke-width:0.08954939"
     d=""
     id="path3840"
     inkscape:connector-curvature="0" /><path
     style="fill:#0000ff;stroke-width:0.08954939"
     d=""
     id="path3842"
     inkscape:connector-curvature="0" /><path
     style="fill:#0000ff;stroke-width:0.08954939"
     d="m 283.54148,123.40312 c 0.004,-0.10432 0.0255,-0.12554 0.0541,-0.0541 0.0259,0.0646 0.0227,0.14188 -0.007,0.17164 -0.0297,0.0297 -0.0509,-0.0231 -0.047,-0.11754 z"
     id="path3844"
     inkscape:connector-curvature="0" /><path
     style="fill:#0000ff;stroke-width:0.04477469"
     d=""
     id="path3846"
     inkscape:connector-curvature="0" /><path
     style="fill:#0000ff;stroke-width:0.04477469"
     d="m 230.74532,129.4798 c 4.98344,-10.50696 10.03137,-21.75034 15.63426,-34.822597 0.70169,-1.637125 1.29833,-2.984101 1.32586,-2.993278 0.0327,-0.01092 0.0281,0.03522 -0.0135,0.133399 -5.14651,12.163766 -10.99264,25.282636 -15.95933,35.813126 -1.66413,3.52832 -1.82106,3.85063 -1.87489,3.85063 -0.0287,0 0.37071,-0.89158 0.88755,-1.98128 z"
     id="path3848"
     inkscape:connector-curvature="0" /><path
     style="fill:#0000ff;stroke-width:0.04477469"
     d=""
     id="path3850"
     inkscape:connector-curvature="0" /><path
     style="fill:#0000ff;stroke-width:0.04477469"
     d="m 230.87221,127.8073 c -9.9e-4,-0.0272 0.13152,-0.3294 0.29447,-0.67162 4.13246,-8.67908 10.32056,-22.64206 14.78113,-33.352508 0.48203,-1.157425 0.88208,-2.111546 0.889,-2.120268 0.007,-0.0087 0.0312,-0.0087 0.0539,0 0.0444,0.01704 -0.0252,0.188796 -1.51289,3.732157 -4.40075,10.481519 -9.19171,21.249499 -13.75573,30.916929 -0.65179,1.38059 -0.74719,1.57082 -0.74993,1.49531 z"
     id="path3852"
     inkscape:connector-curvature="0" /><path
     style="fill:#0000ff;stroke-width:0.04477469"
     d="m 283.68383,123.64208 c -0.0157,-0.0821 0.12707,-0.57356 0.43945,-1.51303 0.54844,-1.64945 2.41438,-7.47209 3.23706,-10.1012 2.48719,-7.94857 4.20852,-14.251092 5.40787,-19.800598 0.0679,-0.313983 0.14197,-0.570878 0.1647,-0.570878 0.0545,0 0.0399,0.07606 -0.35528,1.85815 -1.08447,4.890307 -2.48636,10.121286 -4.15181,15.492046 -0.5135,1.65591 -0.83791,2.66616 -1.83323,5.70877 -0.78457,2.39835 -1.7833,5.53044 -2.40573,7.54454 -0.25115,0.81266 -0.46184,1.48345 -0.46822,1.49064 -0.006,0.007 -0.022,-0.0416 -0.0348,-0.10844 z"
     id="path3854"
     inkscape:connector-curvature="0" /><path
     style="fill:#0000ff;stroke-width:0.04477469"
     d="m 287.14984,110.52891 c 0,-0.0493 0.0173,-0.12985 0.0385,-0.1791 l 0.0385,-0.0896 v 0.0896 c 0,0.0493 -0.0173,0.12984 -0.0385,0.1791 l -0.0385,0.0896 z"
     id="path3856"
     inkscape:connector-curvature="0" /><path
     style="fill:#0000ff;stroke-width:0.04477469"
     d="m 287.06029,110.84233 c 0,-0.0493 0.0173,-0.12985 0.0385,-0.1791 l 0.0385,-0.0896 v 0.0896 c 0,0.0493 -0.0173,0.12985 -0.0385,0.1791 l -0.0385,0.0896 z"
     id="path3858"
     inkscape:connector-curvature="0" /><path
     style="fill:#0000ff;stroke-width:0.04477469"
     d=""
     id="path3860"
     inkscape:connector-curvature="0" /><path
     style="fill:#0000ff;stroke-width:0.04477469"
     d="m 286.83482,111.62589 c -0.002,-0.0369 0.0441,-0.21828 0.10306,-0.40298 0.059,-0.18469 0.10912,-0.30558 0.11143,-0.26864 0.002,0.0369 -0.0441,0.21827 -0.10306,0.40297 -0.059,0.18469 -0.10913,0.30559 -0.11143,0.26865 z"
     id="path3862"
     inkscape:connector-curvature="0" /><path
     style="fill:#0000ff;stroke-width:0.02238735"
     d="m 284.07581,121.33192 c 0.3155,-1.13461 0.90297,-3.1576 1.88373,-6.48673 1.63781,-5.55945 2.7139,-9.37012 3.60561,-12.76828 0.0673,-0.25654 0.12684,-0.47087 0.13227,-0.4763 0.005,-0.005 0.17063,-0.007 0.36712,-0.004 l 0.35724,0.006 -0.32948,1.1761 c -1.17119,4.18059 -2.30954,7.8969 -4.65944,15.21144 -0.53007,1.64995 -0.99941,3.11324 -1.04299,3.25176 l -0.0792,0.25186 h -0.13999 -0.13998 z"
     id="path3864"
     inkscape:connector-curvature="0" /><path
     style="fill:#0000ff;stroke-width:0.02238735"
     d="m 283.87943,121.45662 c 0.0801,-0.25255 2.19526,-7.33908 2.51232,-8.41731 0.23233,-0.79006 0.42886,-1.42605 0.43673,-1.41331 0.009,0.0138 0.0241,0.006 0.0386,-0.0187 0.0134,-0.023 0.0246,-0.0346 0.025,-0.0258 9.1e-4,0.0214 -0.44763,1.5568 -1.20852,4.13681 -0.68229,2.31355 -1.05913,3.60976 -1.40909,4.84686 -0.12539,0.44327 -0.23563,0.83113 -0.24496,0.86192 -0.0129,0.0424 -0.0347,0.0577 -0.09,0.0631 -0.062,0.006 -0.0711,9.9e-4 -0.0601,-0.0336 z"
     id="path3866"
     inkscape:connector-curvature="0" /><path
     style="fill:#0000ff;stroke-width:0.02238735"
     d="m 287.22916,110.30699 c -0.0107,-0.0661 0.0338,-0.24825 0.21034,-0.86116 1.03959,-3.60833 1.88486,-6.72503 2.56052,-9.44121 0.28712,-1.154218 0.65244,-2.689629 0.76304,-3.206992 0.0326,-0.152555 0.0469,-0.184695 0.082,-0.184695 0.0299,0 0.0391,0.01156 0.0309,0.03918 -0.006,0.02155 -0.063,0.265849 -0.12594,0.542893 -0.66519,2.929914 -1.70138,6.863874 -3.09561,11.752594 -0.34632,1.21436 -0.41375,1.42993 -0.4252,1.35939 z"
     id="path3868"
     inkscape:connector-curvature="0" /><path
     style="fill:#0000ff;stroke-width:0.02238735"
     d=""
     id="path3870"
     inkscape:connector-curvature="0" /><path
     style="fill:#0000ff;stroke-width:0.02238735"
     d=""
     id="path3872"
     inkscape:connector-curvature="0" /><path
     style="fill:#0000ff;stroke-width:0.02238735"
     d="m 287.17132,110.4707 c 0,-0.0308 0.009,-0.0761 0.0192,-0.10074 0.0175,-0.0408 0.0192,-0.0398 0.0192,0.0112 0,0.0308 -0.009,0.0761 -0.0192,0.10074 -0.0175,0.0408 -0.0192,0.0398 -0.0192,-0.0112 z"
     id="path3874"
     inkscape:connector-curvature="0" /><path
     style="fill:#0000ff;stroke-width:0.02238735"
     d="m 292.87837,91.707664 c -7.8e-4,-0.01981 0.0593,-0.327077 0.13346,-0.682814 0.74364,-3.565925 1.39666,-7.529653 1.90554,-11.566221 0.0883,-0.70009 0.0984,-0.755573 0.13867,-0.755573 0.0526,0 0.0508,0.02646 -0.0648,0.985043 -0.43232,3.583744 -1.01522,7.156145 -1.78078,10.913831 -0.21647,1.062533 -0.23817,1.161627 -0.24166,1.103899 -0.004,-0.06138 -0.0458,-0.06998 -0.0682,-0.01395 -0.0134,0.03334 -0.0213,0.03897 -0.0222,0.01579 z"
     id="path3876"
     inkscape:connector-curvature="0" /><path
     style="fill:#0000ff;stroke-width:0.02238735"
     d=""
     id="path3878"
     inkscape:connector-curvature="0" /><path
     style="fill:#0000ff;stroke-width:0.02238735"
     d="m 290.81731,96.5874 c 0,-0.01404 0.0661,-0.328866 0.14692,-0.699605 1.22342,-5.613137 1.84888,-10.653777 2.08304,-16.787364 0.0119,-0.312268 0.0217,-0.397375 0.0455,-0.397375 0.0377,0 0.0378,-0.02624 -0.003,0.806146 -0.19711,3.996586 -0.44616,6.865265 -0.84156,9.693519 -0.31376,2.244259 -0.75512,4.671785 -1.26238,6.943248 -0.0556,0.24907 -0.10113,0.45603 -0.10113,0.45991 0,0.0039 -0.0151,0.0071 -0.0336,0.0071 -0.0185,0 -0.0336,-0.01149 -0.0336,-0.02553 z"
     id="path3880"
     inkscape:connector-curvature="0" /><path
     style="fill:#0000ff;stroke-width:0.02238735"
     d="m 295.01953,78.634455 c 0.0287,-0.168747 0.12752,-1.135206 0.17759,-1.735819 0.11985,-1.437845 0.19351,-2.798423 0.26363,-4.869248 0.0392,-1.1588 0.0394,-6.442641 2.7e-4,-7.533342 -0.0464,-1.292791 -0.12428,-2.880054 -0.15075,-3.072663 -0.0111,-0.08098 -0.009,-0.08395 0.0559,-0.08395 0.0371,0 0.0674,0.008 0.0674,0.01782 0,0.0098 0.0149,0.188618 0.0331,0.397376 0.15404,1.767544 0.23122,3.497992 0.25059,5.618198 0.0229,2.506851 -0.0595,4.881832 -0.26283,7.578117 -0.0785,1.041335 -0.14123,1.72885 -0.31315,3.433706 -0.0308,0.305735 -0.0342,0.317773 -0.0876,0.317773 -0.0385,0 -0.0438,-0.01071 -0.0341,-0.06796 z"
     id="path3882"
     inkscape:connector-curvature="0" /><path
     style="fill:#0000ff;stroke-width:0.02238735"
     d="m 293.06888,78.415845 c 0.12411,-2.551215 0.16171,-11.866286 0.0661,-16.388004 -0.0128,-0.606153 -0.0105,-0.68841 0.0193,-0.68841 0.0287,0 0.0362,0.07243 0.0487,0.475731 0.14756,4.726728 0.14013,10.664288 -0.0192,15.363316 -0.0469,1.383613 -0.0546,1.505738 -0.0954,1.521413 -0.0298,0.01144 -0.0322,-0.02367 -0.0196,-0.284046 z"
     id="path3884"
     inkscape:connector-curvature="0" /><path
     style="fill:#0000ff;stroke-width:0.02238735"
     d="m 295.25747,60.718182 c -0.0902,-1.103893 -0.17473,-1.769007 -0.38644,-3.039082 -0.5072,-3.042884 -1.23974,-5.977524 -2.1017,-8.419676 -0.0861,-0.243956 -0.15655,-0.446561 -0.15655,-0.450232 0,-0.0037 0.0389,-0.0067 0.0864,-0.0067 h 0.0864 l 0.28216,0.845122 c 0.61132,1.83098 1.06455,3.529472 1.45779,5.463057 0.35679,1.75432 0.66499,3.801544 0.83997,5.579502 0.0249,0.252417 0.0509,0.501756 0.058,0.554086 0.0125,0.09276 0.0112,0.09515 -0.0512,0.09515 h -0.0641 z"
     id="path3886"
     inkscape:connector-curvature="0" /><path
     style="fill:#0000ff;stroke-width:0.02238735"
     d="m 293.15184,60.229391 c 0.001,-0.02608 0.006,-0.03138 0.0135,-0.01353 0.006,0.01616 0.006,0.03547 -0.002,0.04291 -0.007,0.0074 -0.0127,-0.0058 -0.0118,-0.02938 z"
     id="path3888"
     inkscape:connector-curvature="0" /><path
     style="fill:#0000ff;stroke-width:0.02238735"
     d="m 293.15429,61.342513 c -0.0334,-0.02118 -0.0377,-0.09932 -0.0721,-1.323936 -0.14056,-4.996845 -0.51811,-8.332928 -1.21825,-10.764507 -0.0766,-0.26587 -0.10106,-0.389148 -0.0541,-0.272454 0.0928,0.23078 0.37364,1.325053 0.53253,2.074774 0.37634,1.775651 0.65066,4.909376 0.80709,9.219642 0.0125,0.344765 0.0282,0.730107 0.0348,0.856316 0.007,0.126208 0.009,0.229316 0.006,0.229127 -0.003,-1.79e-4 -0.0195,-0.0087 -0.0357,-0.01896 z"
     id="path3890"
     inkscape:connector-curvature="0" /><path
     style="fill:#0000ff;stroke-width:0.02238735"
     d="m 292.60518,48.785726 c -0.006,-0.0092 -0.0757,-0.19309 -0.15562,-0.408569 -1.35516,-3.652143 -3.23344,-6.951337 -5.5124,-9.682527 -1.1913,-1.427694 -2.63442,-2.850086 -3.98452,-3.92729 -0.39734,-0.317021 -0.3764,-0.292724 -0.25228,-0.292724 0.0999,0 0.11787,0.01105 0.42456,0.261152 0.76298,0.622203 1.36093,1.167703 2.19039,1.998241 2.02276,2.025404 3.61813,4.152768 5.07994,6.773901 0.55971,1.003608 1.29056,2.532378 1.77272,3.708139 0.206,0.502334 0.60152,1.533327 0.60152,1.56797 0,0.02309 -0.15032,0.02465 -0.16431,0.0017 z"
     id="path3892"
     inkscape:connector-curvature="0" /><path
     style="fill:#0000ff;stroke-width:0.02238735"
     d="m 291.1803,47.332851 c -0.27713,-0.657495 -0.78833,-1.609676 -1.2622,-2.351043 -0.72514,-1.134475 -1.95731,-2.73034 -3.01016,-3.898667 -0.1033,-0.114632 -0.18275,-0.213497 -0.17654,-0.219702 0.0147,-0.01473 0.53488,0.557254 0.99723,1.096621 1.30657,1.524186 2.19097,2.793537 2.9424,4.223137 0.24252,0.461407 0.65252,1.371499 0.63778,1.415721 -0.004,0.01192 -0.0618,-0.10781 -0.12851,-0.266067 z"
     id="path3894"
     inkscape:connector-curvature="0" /><path
     style="fill:#0000ff;stroke-width:0.02238735"
     d="m 291.40563,47.871576 c 0.001,-0.02608 0.006,-0.03138 0.0135,-0.01352 0.006,0.01616 0.006,0.03547 -0.002,0.04291 -0.007,0.0074 -0.0127,-0.0058 -0.0118,-0.02938 z"
     id="path3896"
     inkscape:connector-curvature="0" /><path
     style="fill:#0000ff;stroke-width:0.02238735"
     d="m 265.72557,44.425791 v -9.951175 h 6.88188 6.88188 l 0.43319,0.316953 c 3.78022,2.765886 7.17279,6.156411 9.51812,9.512372 0.8223,1.176636 1.45859,2.341968 1.91234,3.502339 0.63033,1.611953 1.05112,3.502825 1.31527,5.910259 0.0311,0.2832 0.0609,0.547651 0.0663,0.587668 l 0.01,0.07276 h -13.50936 -13.50936 z"
     id="path3898"
     inkscape:connector-curvature="0" /><path
     style="fill:#0000ff;stroke-width:0.02238735"
     d="m 291.5046,48.153284 c -0.021,-0.06316 -0.0331,-0.119875 -0.0269,-0.126031 0.006,-0.0062 0.0284,0.04048 0.0493,0.103644 0.021,0.06316 0.0331,0.119874 0.0269,0.126031 -0.006,0.0062 -0.0284,-0.04048 -0.0493,-0.103644 z"
     id="path3900"
     inkscape:connector-curvature="0" /><path
     style="fill:#0000ff;stroke-width:0.00791512"
     d="m 291.74527,48.87781 c -0.021,-0.06856 -0.0754,-0.234698 -0.12079,-0.369184 -0.0603,-0.178549 -0.08,-0.246118 -0.073,-0.250439 0.007,-0.004 0.008,-0.01566 0.004,-0.03646 -0.003,-0.0168 -0.004,-0.02841 -9.1e-4,-0.0258 0.0161,0.0159 0.26362,0.763804 0.25552,0.77191 -0.002,0.0023 -0.007,-0.0032 -0.009,-0.01226 -0.009,-0.02911 -0.0204,-0.01785 -0.0151,0.01523 0.003,0.01741 0.003,0.03166 0.002,0.03166 -0.002,0 -0.0207,-0.0561 -0.0418,-0.124663 z"
     id="path3902"
     inkscape:connector-curvature="0" /><path
     style="fill:#0000ff;stroke-width:0.00791512"
     d="m 291.43862,47.985647 c -0.0162,-0.04339 -0.0263,-0.0808 -0.0225,-0.08313 0.004,-0.0023 0.008,-0.01492 0.01,-0.02797 0.002,-0.01934 0.009,-0.0072 0.0363,0.0656 0.0376,0.09973 0.0382,0.102432 0.0223,0.08924 -0.009,-0.0077 -0.0118,-0.0054 -0.0138,0.01288 -0.002,0.01751 -0.009,0.0054 -0.0319,-0.05662 z"
     id="path3904"
     inkscape:connector-curvature="0" /><path
     style="fill:#0000ff;stroke-width:0.00791512"
     d="m 291.46009,48.028958 c -0.0168,-0.02723 -0.0421,-0.121352 -0.0366,-0.13626 0.008,-0.02054 0.01,-0.01683 0.0399,0.06076 0.0202,0.05252 0.0221,0.06304 0.0126,0.07247 -0.007,0.0069 -0.0129,0.0081 -0.016,0.003 z"
     id="path3906"
     inkscape:connector-curvature="0" /><path
     style="fill:#0000ff;stroke-width:0.00791512"
     d="m 291.41016,47.874569 c 1.6e-4,-0.01306 0.002,-0.01745 0.004,-0.0097 0.002,0.0077 0.002,0.01839 -2.9e-4,0.02375 -0.002,0.0054 -0.004,-9.43e-4 -0.004,-0.014 z"
     id="path3908"
     inkscape:connector-curvature="0" /><path
     style="fill:#0000ff;stroke-width:0.00791512"
     d="m 291.33342,47.717317 c -0.0658,-0.165696 -0.0795,-0.206682 -0.0499,-0.149459 0.0207,0.03996 0.0336,0.04391 0.0259,0.0079 -0.009,-0.04412 0.001,-0.0223 0.0589,0.122779 0.0565,0.141628 0.0627,0.161256 0.0481,0.15223 -0.004,-0.0027 -0.0106,0.002 -0.0138,0.01048 -0.004,0.01148 -0.022,-0.02525 -0.0692,-0.143942 z"
     id="path3910"
     inkscape:connector-curvature="0" /><path
     style="fill:#0000ff;stroke-width:0.00791512"
     d="m 286.69455,40.852083 c -0.19561,-0.22169 -0.71286,-0.771836 -1.08453,-1.153509 -0.56444,-0.579622 -1.27296,-1.263611 -1.86868,-1.803982 -0.16398,-0.148746 -0.17407,-0.159459 -0.15231,-0.161779 0.0207,-0.0022 0.0455,0.01796 0.21914,0.178069 0.53805,0.496044 0.90811,0.852289 1.4944,1.438604 0.28322,0.283239 0.59844,0.602278 0.70049,0.708977 0.46557,0.486804 0.77831,0.822629 0.77199,0.828956 -0.003,0.0026 -0.0137,-0.0036 -0.0245,-0.0138 -0.0143,-0.01343 -0.0198,-0.01533 -0.0198,-0.0069 0,0.0064 0.004,0.01588 0.009,0.02103 0.005,0.0052 0.008,0.01119 0.005,0.01341 -0.002,0.0022 -0.0251,-0.01986 -0.0509,-0.04908 z"
     id="path3912"
     inkscape:connector-curvature="0" /><path
     style="fill:#0000ff;stroke-width:0.00791512"
     d=""
     id="path3914"
     inkscape:connector-curvature="0" /><path
     style="fill:#0000ff;stroke-width:0.00791512"
     d="m 283.49745,37.673997 c -0.99447,-0.897329 -2.20114,-1.882419 -3.35507,-2.73899 l -0.17903,-0.132893 v -0.03973 c 0,-0.02962 0.003,-0.03824 0.01,-0.03388 0.005,0.0032 0.12387,0.09173 0.26318,0.196706 0.92068,0.69379 1.9007,1.495556 2.80987,2.298805 0.3634,0.321062 0.56044,0.50256 0.54943,0.5061 -0.006,0.002 -0.013,0.0062 -0.0152,0.0095 -0.002,0.0032 -0.0396,-0.02629 -0.0831,-0.06557 z"
     id="path3916"
     inkscape:connector-curvature="0" /><path
     style="fill:#0000ff;stroke-width:0.00791512"
     d="m 286.18384,37.634732 c -0.34519,-0.373527 -0.48196,-0.51456 -1.0032,-1.034485 -0.28981,-0.289073 -0.52293,-0.524152 -0.51804,-0.522398 0.005,0.0018 0.14149,0.131413 0.30358,0.288132 0.3599,0.347979 0.82387,0.82317 1.15538,1.183311 0.21627,0.234958 0.2472,0.269678 0.24349,0.273381 -0.002,0.0022 -0.0837,-0.08242 -0.18121,-0.187941 z"
     id="path3918"
     inkscape:connector-curvature="0" /><path
     style="fill:#0000ff;stroke-width:0.00791512"
     d="m 288.86172,41.274848 c -1.19057,-1.797838 -2.55834,-3.436064 -4.11764,-4.931824 -0.65533,-0.628626 -1.19098,-1.100272 -1.82108,-1.603473 -0.11068,-0.08839 -0.20462,-0.163756 -0.20875,-0.167483 -0.004,-0.0038 0.0365,-0.0068 0.0926,-0.0068 h 0.10012 l 0.0815,0.06494 c 0.5553,0.442297 1.15868,0.973533 1.72788,1.521272 1.56845,1.509318 2.77464,2.906179 3.91354,4.532173 0.14598,0.208412 0.42974,0.628688 0.55713,0.825152 l 0.0603,0.093 -0.0849,-4.87e-4 -0.0849,-4.87e-4 z"
     id="path3920"
     inkscape:connector-curvature="0" /><path
     style="fill:#0000ff;stroke-width:0.00791512"
     d=""
     id="path3922"
     inkscape:connector-curvature="0" /><path
     style="fill:#0000ff;stroke-width:0.00791512"
     d=""
     id="path3924"
     inkscape:connector-curvature="0" /><path
     style="fill:#0000ff;stroke-width:0.00791512"
     d=""
     id="path3926"
     inkscape:connector-curvature="0" /><path
     style="fill:#0000ff;stroke-width:0.00791512"
     d="m 279.87034,34.734673 c -0.0457,-0.03372 -0.21846,-0.158015 -0.38389,-0.276211 -1.07362,-0.767101 -2.22825,-1.516391 -3.28081,-2.129059 -0.11101,-0.06461 -0.20647,-0.121658 -0.21212,-0.126761 -0.007,-0.0063 -0.01,-0.02605 -0.008,-0.0613 l 0.002,-0.05202 0.24933,0.146787 c 1.18545,0.697917 2.56971,1.618086 3.64491,2.422903 0.0435,0.03259 0.0799,0.05967 0.0807,0.06019 8.7e-4,5.16e-4 -9.2e-4,0.018 -0.004,0.03886 l -0.006,0.03792 z"
     id="path3928"
     inkscape:connector-curvature="0" /><path
     style="fill:#0000ff;stroke-width:0.00791512"
     d="m 282.85038,34.517654 c -0.0431,-0.03163 -0.0986,-0.04734 -0.16719,-0.04734 -0.0589,0 -0.075,0.0078 -0.0581,0.02805 0.0224,0.02699 -0.01,0.0045 -0.1646,-0.116182 -1.4177,-1.102861 -2.98178,-2.105749 -4.67974,-3.000651 -0.2245,-0.11832 -0.89393,-0.454408 -1.11633,-0.560449 l -0.10714,-0.05109 0.192,-0.0021 0.19201,-0.0021 0.25549,0.127777 c 1.88231,0.941394 3.69344,2.079148 5.30138,3.330335 0.18604,0.144762 0.36774,0.288683 0.38756,0.306979 0.0211,0.0195 -0.003,0.01044 -0.0353,-0.01319 z"
     id="path3930"
     inkscape:connector-curvature="0" /><path
     style="fill:#0000ff;stroke-width:0.00791512"
     d="m 275.94048,32.17611 c -0.1147,-0.07168 -0.76964,-0.433211 -1.15561,-0.637904 -0.27363,-0.145117 -1.06405,-0.541499 -1.32578,-0.664856 -0.74421,-0.350752 -1.51431,-0.678835 -2.15869,-0.919658 l -0.18783,-0.0702 -1.6e-4,-0.04528 -1.5e-4,-0.04528 0.0851,0.0305 c 1.12661,0.4038 2.39255,0.969323 3.60336,1.609703 0.34676,0.183393 0.89197,0.484237 1.1267,0.62171 l 0.0542,0.03174 10e-4,0.05604 c 6.6e-4,0.03082 -5.8e-4,0.05597 -0.003,0.05589 -0.002,-8.5e-5 -0.02,-0.01017 -0.0396,-0.02241 z"
     id="path3932"
     inkscape:connector-curvature="0" /><path
     style="fill:#0000ff;stroke-width:0.00791512"
     d=""
     id="path3934"
     inkscape:connector-curvature="0" /><path
     style="fill:#0000ff;stroke-width:0.00791512"
     d="m 276.47871,30.733311 c -1.58301,-0.748834 -3.42511,-1.454527 -5.28532,-2.024766 l -0.0811,-0.02487 v -0.08673 c 0,-0.05862 0.003,-0.08673 0.009,-0.08673 0.01,0 0.3231,0.09394 0.54521,0.163379 1.67151,0.522562 3.23653,1.128756 4.74512,1.837973 0.12189,0.0573 0.2893,0.137715 0.37201,0.17869 l 0.15039,0.0745 -0.19392,1.86e-4 -0.19392,1.86e-4 -0.0673,-0.03183 z"
     id="path3936"
     inkscape:connector-curvature="0" /><path
     style="fill:#0000ff;stroke-width:0.00791512"
     d="m 270.92625,29.815594 c -1.09168,-0.394995 -2.18112,-0.69001 -3.19771,-0.865923 -0.10883,-0.01883 -0.18813,-0.03459 -0.17621,-0.03501 0.0339,-0.0012 0.41714,0.05155 0.63133,0.0869 0.66233,0.109332 1.31152,0.269065 2.12291,0.52234 0.20352,0.06353 0.6558,0.214027 0.76413,0.254268 l 0.0416,0.01544 v 0.04296 c 0,0.02363 -0.003,0.04275 -0.006,0.0425 -0.003,-2.58e-4 -0.0843,-0.02882 -0.18007,-0.06348 z"
     id="path3938"
     inkscape:connector-curvature="0" /><path
     style="fill:#0000ff;stroke-width:0.00791512"
     d="m 270.97374,28.643324 c -0.256,-0.07904 -0.78487,-0.229489 -1.15956,-0.329861 -2.42329,-0.649141 -4.76192,-1.04011 -6.82284,-1.140635 -0.25401,-0.01239 -1.32222,-0.03984 -1.55042,-0.03984 h -0.0722 v -0.142472 -0.142472 h 0.0267 c 0.1391,0 1.09053,0.06739 1.56822,0.111084 2.76007,0.25244 5.40649,0.751027 8.0477,1.516194 l 0.10092,0.02924 v 0.0899 c 0,0.04944 -0.003,0.08946 -0.006,0.08893 -0.003,-5.3e-4 -0.0629,-0.01856 -0.13258,-0.04007 z"
     id="path3940"
     inkscape:connector-curvature="0" /><path
     style="fill:#0000ff;stroke-width:0.00791512"
     d="m 258.52362,32.715131 c 0.002,-0.01197 0.0218,-0.139306 0.0437,-0.282966 0.37343,-2.452047 0.90506,-4.351277 1.54114,-5.505675 l 0.068,-0.123393 0.0955,0.0027 c 0.52398,0.01508 0.66801,0.0197 0.83557,0.0268 0.10666,0.0045 0.20906,0.01006 0.22756,0.0123 l 0.0336,0.0041 v 0.141302 0.141301 l -0.15237,-0.0039 c -0.29625,-0.0077 -1.12595,-0.02397 -1.12828,-0.02215 -0.004,0.003 -0.4708,1.342544 -0.54351,1.559046 -0.40179,1.19639 -0.68826,2.472381 -0.87076,3.87841 -0.0113,0.08707 -0.0223,0.166317 -0.0244,0.176112 -0.004,0.01666 -0.008,0.01781 -0.0668,0.01781 h -0.063 z"
     id="path3942"
     inkscape:connector-curvature="0" /><path
     style="fill:#0000ff;stroke-width:0.00791512"
     d="m 259.87278,32.721076 c 0,-0.0087 0.0338,-0.898031 0.0752,-1.976288 0.0414,-1.078257 0.0752,-1.966931 0.0752,-1.974832 0,-0.01384 0.0756,-0.01432 2.0797,-0.01327 1.14383,6.05e-4 2.25601,0.0035 2.47149,0.0064 0.21549,0.0029 -0.68981,0.006 -2.01178,0.0068 l -2.40359,0.0015 -0.004,0.04947 c -0.004,0.03934 -0.15577,3.869354 -0.15526,3.906113 1e-4,0.0071 -0.0177,0.0099 -0.0632,0.0099 -0.058,0 -0.0633,-0.0013 -0.0633,-0.01582 z"
     id="path3944"
     inkscape:connector-curvature="0" /><path
     style="fill:#0000ff;stroke-width:0.02571355"
     d="m 258.24164,50.203686 c -0.0147,-0.11311 -0.0711,-0.866941 -0.11691,-1.562098 -0.25794,-3.916398 -0.27122,-7.980452 -0.0378,-11.571098 0.0836,-1.286736 0.24071,-2.884894 0.3917,-3.9856 0.0417,-0.304085 0.0474,-0.321886 0.10522,-0.330066 0.0564,-0.008 0.0599,-0.0019 0.0455,0.07714 -0.009,0.04718 -0.0444,0.369278 -0.0796,0.715769 -0.39614,3.898338 -0.48338,10.953598 -0.20324,16.437387 0.0164,0.320672 0.0156,0.327848 -0.037,0.327848 -0.0438,0 -0.0563,-0.02014 -0.0679,-0.109283 z"
     id="path3948"
     inkscape:connector-curvature="0" /><path
     style="fill:#0000ff;stroke-width:0.02571355"
     d="m 259.16305,50.075118 c 0.009,-0.130817 0.0391,-0.71805 0.0668,-1.304962 0.16449,-3.489773 0.24822,-5.524069 0.51592,-12.535356 0.0729,-1.909232 0.13607,-3.475157 0.14037,-3.479836 0.004,-0.0047 0.0293,-0.0047 0.0556,0 0.046,0.0082 0.0376,0.264677 -0.23948,7.246871 -0.3735,9.412735 -0.39233,9.876258 -0.41075,10.111854 -0.015,0.191606 -0.0181,0.19928 -0.0802,0.19928 h -0.0647 z"
     id="path3950"
     inkscape:connector-curvature="0" /><path
     style="fill:#0000ff;stroke-width:0.02571355"
     d="m 258.86107,55.622817 c -0.22356,-1.516468 -0.38767,-2.886207 -0.54375,-4.538442 -0.0776,-0.821581 -0.0767,-0.771406 -0.0143,-0.771406 0.0636,0 0.0686,0.0317 0.10362,0.655695 0.0651,1.159462 0.18479,2.289256 0.28322,2.674118 0.0566,0.221465 0.0788,0.259129 0.13865,0.236146 0.10151,-0.03895 0.1508,-0.472764 0.24596,-2.164571 0.0857,-1.523274 0.0731,-1.401388 0.14495,-1.401388 0.0756,0 0.0746,-0.112292 0.0107,1.144253 -0.0848,1.669769 -0.25756,4.412355 -0.29074,4.615582 -0.003,0.02121 -0.0387,-0.18128 -0.0783,-0.449987 z"
     id="path3952"
     inkscape:connector-curvature="0" /><path
     style="fill:#0000ff;stroke-width:0.02571355"
     d="m 252.75588,77.012657 c 0.007,-0.02618 0.28766,-0.747644 0.62306,-1.603262 1.40506,-3.584259 2.58616,-6.669531 3.84885,-10.053999 0.36671,-0.9829 0.67712,-1.810234 0.68981,-1.838519 0.0468,-0.10427 0.0266,0.0366 -0.0782,0.545475 -0.68466,3.324776 -1.7758,6.913474 -3.50868,11.539894 -0.59843,1.597668 -0.53538,1.452816 -0.63238,1.452816 -0.0534,0 -0.0753,-0.01056 -0.0666,-0.03214 0.0632,-0.156672 0.37471,-0.968246 0.6066,-1.580248 1.34205,-3.541929 2.30793,-6.399186 2.53376,-7.495344 0.0725,-0.351861 0.0886,-0.648729 0.0342,-0.632222 -0.0686,0.02084 -0.4512,0.8485 -0.98406,2.128745 -0.35005,0.841018 -0.9911,2.459143 -1.73178,4.371303 -1.24183,3.20595 -1.24996,3.226162 -1.30119,3.236073 -0.0348,0.0067 -0.0433,-0.0031 -0.0334,-0.03857 z"
     id="path3954"
     inkscape:connector-curvature="0" /><path
     style="fill:#0000ff;stroke-width:0.02571355"
     d="m 249.51575,87.244057 c 1.07749,-2.558291 3.10298,-7.579507 4.00905,-9.938488 0.0927,-0.24142 0.0992,-0.250693 0.17078,-0.245238 0.0619,0.0047 0.0717,0.01443 0.0584,0.05806 -0.0989,0.324215 -1.83484,4.639344 -2.8451,7.072185 -1.30097,3.132889 -1.3084,3.14991 -1.37409,3.14991 -0.059,0 -0.0592,-0.001 -0.0191,-0.09642 z"
     id="path3956"
     inkscape:connector-curvature="0" /><path
     style="fill:#0000ff;stroke-width:0.02571355"
     d="m 248.61061,87.320933 c 0.0536,-0.08678 3.05125,-7.541963 3.96613,-9.863925 0.13617,-0.345604 0.18999,-0.436658 0.23279,-0.393859 0.0236,0.02363 -2.31351,5.91684 -3.65516,9.216649 -0.40111,0.986527 -0.43561,1.060684 -0.49355,1.060684 -0.0343,0 -0.0569,-0.0088 -0.0502,-0.01955 z"
     id="path3958"
     inkscape:connector-curvature="0" /><path
     style="fill:#0000ff;stroke-width:0.02571355"
     d=""
     id="path3960"
     inkscape:connector-curvature="0" /><path
     style="fill:#0000ff;stroke-width:0.02571355"
     d="m 247.6325,91.724643 c 0.006,-0.02828 0.13041,-0.329134 0.27562,-0.668553 0.14521,-0.339418 0.55651,-1.311391 0.91398,-2.159938 0.55384,-1.314629 0.65821,-1.544075 0.70567,-1.551344 0.047,-0.0072 0.0529,3.31e-4 0.0377,0.04831 -0.0165,0.05205 -0.55572,1.330057 -1.46637,3.475619 -0.20418,0.481054 -0.36509,0.828142 -0.37586,0.810721 -0.0206,-0.03332 -0.025,-0.03054 -0.071,0.04519 l -0.0313,0.05143 z"
     id="path3962"
     inkscape:connector-curvature="0" /><path
     style="fill:#0000ff;stroke-width:0.02571355"
     d="m 246.88443,91.663859 c -0.0286,-0.06464 -0.0131,-0.114862 0.17603,-0.570747 0.11408,-0.274926 0.47393,-1.147847 0.79967,-1.939824 0.32574,-0.791978 0.62638,-1.522608 0.66809,-1.623624 0.0611,-0.147866 0.0884,-0.186069 0.14037,-0.196 0.0415,-0.0079 0.0602,-0.002 0.0524,0.01653 -0.007,0.01587 -0.19921,0.485897 -0.42784,1.044495 -0.49663,1.213432 -1.36723,3.327898 -1.37314,3.335005 -0.002,0.0028 -0.0183,-0.02685 -0.0356,-0.06583 z"
     id="path3964"
     inkscape:connector-curvature="0" /><path
     style="fill:#0000ff;stroke-width:0.20570841"
     d="m 313.60639,450.94649 c -5.98987,-0.2009 -12.36258,-0.53989 -17.88732,-0.95148 -3.23777,-0.24121 -6.10797,-0.27771 -13.4739,-0.1713 -30.22827,0.43665 -75.16812,-1.95581 -110.56827,-5.88634 -7.71115,-0.85618 -21.3971,-2.50006 -21.47825,-2.57985 -0.0465,-0.0457 0.0251,-0.70851 0.15919,-1.47283 0.54707,-3.11878 0.63617,-6.29751 0.66741,-23.81189 0.018,-10.06942 0.0898,-20.11314 0.15959,-22.31936 0.0891,-2.81722 0.1745,0.76505 0.28674,12.03394 0.28124,28.23628 0.69975,33.66556 2.69591,34.9735 1.38778,0.9093 14.37089,2.55258 30.77761,3.89552 27.40024,2.24279 57.27984,3.52411 108.40833,4.64886 12.97335,0.28539 38.87742,0.28843 45.56441,0.005 20.65948,-0.87459 31.00351,-2.80408 43.74052,-8.15901 16.51768,-6.94439 25.17182,-15.83627 27.89161,-28.6578 0.5061,-2.3859 0.55074,-2.98525 0.5607,-7.52925 0.0101,-4.57183 -0.0494,-5.41071 -0.80341,-11.34133 l -0.81422,-6.40432 2.0267,-2.18863 c 1.11469,-1.20375 2.06601,-2.14933 2.11405,-2.1013 0.048,0.048 -0.23194,0.5361 -0.62217,1.0846 -2.46696,3.46756 -3.06444,7.48393 -1.81616,12.20837 1.19642,4.52813 1.57635,8.33227 1.2545,12.56142 -0.45964,6.0398 -2.08453,10.80773 -5.36908,15.7545 -1.74862,2.63355 -6.44445,7.45866 -9.18288,9.43572 -12.1089,8.74221 -30.10434,14.32871 -52.29464,16.23436 -8.67239,0.74476 -22.37911,1.06114 -31.99697,0.73855 z"
     id="path3966"
     inkscape:connector-curvature="0" /><path
     style="fill:#0000ff;stroke-width:0.20570841"
     d="m 415.92683,380.41212 c 0.60475,-0.67001 2.25665,-2.45317 3.67089,-3.96259 7.89314,-8.4243 11.93715,-15.09566 13.50636,-22.28129 0.44622,-2.04332 0.59016,-6.63682 0.28458,-9.08176 -0.25458,-2.03679 -0.73364,-4.06458 -2.66543,-11.28227 -1.20174,-4.49003 -1.28938,-5.2289 -0.42709,-3.601 1.48011,2.79428 3.01332,7.2842 3.69679,10.8259 2.44637,12.67681 -1.39857,24.17134 -11.41367,34.12138 -1.99887,1.98588 -7.28919,6.47982 -7.62814,6.47982 -0.0681,0 0.37097,-0.54819 0.97571,-1.21819 z"
     id="path3968"
     inkscape:connector-curvature="0" /><path
     style="fill:#0000ff;stroke-width:0.20570841"
     d="m 429.67746,316.00658 c 5e-5,-0.48518 1.83834,-3.22554 3.73258,-5.56419 8.35393,-10.31383 11.08854,-18.55708 9.21845,-27.78822 -1.06639,-5.26391 -3.37648,-10.0039 -8.46476,-17.36856 -1.13546,-1.64344 -2.02036,-3.03218 -1.96645,-3.08609 0.1651,-0.1651 3.36307,3.32898 4.72865,5.16648 3.1613,4.25381 5.4686,8.9062 6.55988,13.22722 2.70047,10.69268 -0.75111,20.92763 -10.72955,31.81621 -0.93315,1.01826 -2.00762,2.31298 -2.38773,2.87717 -0.3801,0.56419 -0.69108,0.88818 -0.69107,0.71998 z"
     id="path3970"
     inkscape:connector-curvature="0" /><path
     style="fill:#0000ff;stroke-width:0.20570841"
     d="m 46.403954,447.0837 c -4.4483,-0.46665 -9.019081,-3.73677 -11.087145,-7.93218 -1.568459,-3.18188 -1.450674,-0.73693 -1.514996,-31.44767 l -0.05763,-27.5135 h 0.484798 0.484797 l 0.135279,18.56518 c 0.220481,30.25816 0.649029,37.61917 2.399115,41.20869 0.790312,1.62096 2.645399,3.39911 4.405484,4.22275 1.625439,0.76063 4.28061,1.31618 7.83592,1.63951 3.831325,0.34844 41.524026,0.50437 49.783903,0.20595 9.227681,-0.33338 13.682071,-0.86892 16.394461,-1.97106 0.64757,-0.26314 2.12257,-1.13319 3.27777,-1.93346 1.1552,-0.80027 2.14554,-1.40986 2.20076,-1.35464 0.17185,0.17184 -1.48823,2.00707 -2.76287,3.05438 -0.66877,0.5495 -1.94297,1.3553 -2.83155,1.79067 -3.09039,1.51417 -0.91821,1.42614 -36.543317,1.48092 -17.593212,0.0271 -32.265364,0.0201 -32.604783,-0.0156 z"
     id="path3972"
     inkscape:connector-curvature="0" /><path
     style="fill:#0000ff;stroke-width:0.20570841"
     d="m 122.01364,419.12067 -0.0118,-20.41656 h 0.93412 0.93412 l -0.0705,18.05091 c -0.0768,19.65243 -0.037,18.96785 -1.25879,21.65081 l -0.51525,1.13139 z"
     id="path3974"
     inkscape:connector-curvature="0" /><path
     style="fill:#0000ff;stroke-width:0.20570841"
     d="m 33.752887,339.04867 v -41.14168 h 0.514271 0.514271 v 41.14168 41.14168 h -0.514271 -0.514271 z"
     id="path3976"
     inkscape:connector-curvature="0" /><path
     style="fill:#0000ff;stroke-width:0.20570841"
     d="m 35.398554,263.45155 c 0,-0.37826 1.690413,-2.61541 2.798367,-3.70347 1.392481,-1.36748 2.914085,-2.35078 4.843973,-3.13029 2.530246,-1.02201 3.587867,-1.08972 16.400427,-1.04989 l 11.853351,0.0368 -8.845462,0.14341 c -10.373405,0.16819 -13.928835,0.45029 -17.176652,1.36284 -2.219244,0.62356 -3.868652,1.68318 -9.01488,5.79141 -0.472518,0.37722 -0.859124,0.62433 -0.859124,0.54914 z"
     id="path3978"
     inkscape:connector-curvature="0" /><path
     style="fill:#0000ff;stroke-width:0.20570841"
     d="m 33.752887,283.39587 c 0,-12.30925 0.04841,-14.74547 0.319027,-16.05562 0.175465,-0.84949 0.40102,-1.74813 0.501232,-1.99699 0.108202,-0.2687 0.187501,6.25234 0.195244,16.05563 l 0.01304,16.5081 h -0.514271 -0.514271 z"
     id="path3980"
     inkscape:connector-curvature="0" /></svg>