<?xml version="1.0" encoding="utf-8"?>
<!-- Generator: Adobe Illustrator 21.1.0, SVG Export Plug-In . SVG Version: 6.00 Build 0)  -->
<svg version="1.1" id="Layer_1" xmlns:x="&ns_extend;" xmlns:i="&ns_ai;" xmlns:graph="&ns_graphs;"
	 xmlns="http://www.w3.org/2000/svg" xmlns:xlink="http://www.w3.org/1999/xlink" x="0px" y="0px" viewBox="0 0 612 792"
	 style="enable-background:new 0 0 612 792;" xml:space="preserve">
<style type="text/css">
	.st0{display:none;}
	.st1{display:inline;fill:none;stroke:#000000;}
	.st2{clip-path:url(#SVGID_2_);fill:none;stroke:#000000;}
	.st3{clip-path:url(#SVGID_4_);fill:none;stroke:#000000;}
	.st4{fill:none;stroke:#000000;}
	.st5{clip-path:url(#SVGID_6_);fill:none;stroke:#000000;}
	.st6{clip-path:url(#SVGID_8_);fill:none;stroke:#000000;}
	.st7{clip-path:url(#SVGID_10_);fill:none;stroke:#000000;}
	.st8{clip-path:url(#SVGID_12_);fill:none;stroke:#000000;}
	.st9{clip-path:url(#SVGID_14_);fill:none;stroke:#000000;}
	.st10{clip-path:url(#SVGID_16_);fill:none;stroke:#000000;}
	.st11{clip-path:url(#SVGID_18_);fill:none;stroke:#000000;}
</style>
<metadata>
	<sfw  xmlns="&ns_sfw;">
		<slices></slices>
		<sliceSourceBounds  bottomLeftOrigin="true" height="134.8" width="168.8" x="205.4" y="415.9"></sliceSourceBounds>
	</sfw>
</metadata>
<g class="st0">
	<circle class="st1" cx="255.9" cy="291.8" r="50"/>
	<circle class="st1" cx="323.7" cy="291.8" r="50"/>
</g>
<g>
	<g>
		<g>
			<g>
				<defs>
					<rect id="SVGID_1_" x="286.5" y="320.7" width="17.9" height="55.4"/>
				</defs>
				<clipPath id="SVGID_2_">
					<use xlink:href="#SVGID_1_"  style="overflow:visible;"/>
				</clipPath>
				<path class="st2" d="M298.5,354.6c2.8-3.6,5-7.8,5-12.8c0-9.8-7.6-17.7-17-17.7c-9.4,0-17,7.9-17,17.7c0,5,2.3,8.9,5.1,12.4"/>
				<rect x="281.8" y="365" class="st2" width="9.5" height="9.2"/>
				<line class="st2" x1="298.5" y1="354.6" x2="291.3" y2="365"/>
				<line class="st2" x1="274.6" y1="354.2" x2="281.8" y2="365.2"/>
			</g>
			<g>
				<defs>
					<rect id="SVGID_3_" x="267.9" y="320.7" width="18.6" height="55.4"/>
				</defs>
				<clipPath id="SVGID_4_">
					<use xlink:href="#SVGID_3_"  style="overflow:visible;"/>
				</clipPath>
				<path class="st3" d="M274,354.6c-2.9-3.6-5.2-7.8-5.2-12.8c0-9.8,7.9-17.7,17.7-17.7c9.8,0,17.7,7.9,17.7,17.7
					c0,5-2.4,8.9-5.3,12.4"/>
				<rect x="281.6" y="365" class="st3" width="9.9" height="9.2"/>
				<line class="st3" x1="274" y1="354.6" x2="281.6" y2="365"/>
				<line class="st3" x1="299" y1="354.2" x2="291.4" y2="365.2"/>
			</g>
		</g>
		<line class="st4" x1="284.8" y1="368.4" x2="288.3" y2="368.4"/>
		<line class="st4" x1="284.8" y1="370.9" x2="288.3" y2="370.9"/>
		<line class="st4" x1="289.4" y1="354.5" x2="287.3" y2="363.5"/>
		<path class="st4" d="M286.4,354.9c-0.1-0.2,0.9,1.2,1.6,1.2"/>
		<path class="st4" d="M287.8,356.1c0.7,0,1.6-0.6,1.6-1.5"/>
		<g>
			<path class="st4" d="M284,355.9c0-0.9,0.6-1.6,1.2-1.6"/>
			<path class="st4" d="M287,355.6c-0.6-0.8-1.4-1.2-2-1.2"/>
		</g>
		<g>
			<defs>
				<rect id="SVGID_5_" x="283.4" y="355.9" width="2.1" height="1.9"/>
			</defs>
			<clipPath id="SVGID_6_">
				<use xlink:href="#SVGID_5_"  style="overflow:visible;"/>
			</clipPath>
			<line class="st5" x1="287" y1="363.8" x2="284" y2="355.9"/>
		</g>
	</g>
	<g>
		<g>
			<g>
				<g>
					<defs>
						
							<rect id="SVGID_7_" x="270.7" y="303.6" transform="matrix(0.866 -0.5 0.5 0.866 -116.285 191.0518)" width="55.4" height="17.9"/>
					</defs>
					<clipPath id="SVGID_8_">
						<use xlink:href="#SVGID_7_"  style="overflow:visible;"/>
					</clipPath>
					<path class="st6" d="M302.2,306.8c-4.5-0.6-9.2-0.5-13.6,2c-8.5,4.9-11.5,15.5-6.8,23.6c4.7,8.1,15.4,10.8,23.8,5.9
						c4.3-2.5,6.6-6.5,8.2-10.6"/>
					
						<rect x="316.6" y="304.9" transform="matrix(0.8661 -0.4999 0.4999 0.8661 -111.7911 202.0596)" class="st6" width="9.2" height="9.5"/>
					<line class="st6" x1="302.2" y1="306.8" x2="314.8" y2="307.9"/>
					<line class="st6" x1="313.9" y1="327.7" x2="319.8" y2="315.9"/>
				</g>
				<g>
					<defs>
						
							<rect id="SVGID_9_" x="279.8" y="319" transform="matrix(0.866 -0.5 0.5 0.866 -122.9639 197.7314)" width="55.4" height="18.6"/>
					</defs>
					<clipPath id="SVGID_10_">
						<use xlink:href="#SVGID_9_"  style="overflow:visible;"/>
					</clipPath>
					<path class="st7" d="M314.5,328c-1.6,4.3-4.1,8.4-8.4,10.9c-8.5,4.9-19.3,2-24.2-6.5c-4.9-8.5-2-19.3,6.5-24.2
						c4.3-2.5,9-2.3,13.4-1.6"/>
					
						<rect x="316.6" y="304.7" transform="matrix(0.8661 -0.4999 0.4999 0.8661 -111.7917 202.0637)" class="st7" width="9.2" height="9.9"/>
					<line class="st7" x1="314.5" y1="328" x2="319.7" y2="316.3"/>
					<line class="st7" x1="301.7" y1="306.6" x2="315" y2="307.6"/>
				</g>
			</g>
			<line class="st4" x1="321.1" y1="311.8" x2="319.3" y2="308.7"/>
			<line class="st4" x1="323.2" y1="310.6" x2="321.5" y2="307.5"/>
			<line class="st4" x1="306.8" y1="314.7" x2="315.5" y2="312.1"/>
			<path class="st4" d="M308.6,317.1c-0.1,0.2,0.5-1.4,0.2-2"/>
			<path class="st4" d="M308.9,315.3c-0.4-0.6-1.3-1.1-2.1-0.6"/>
			<g>
				<path class="st4" d="M310.7,318.7c-0.8,0.4-1.7,0.3-2-0.3"/>
				<path class="st4" d="M308.8,316.3c-0.4,0.9-0.4,1.8-0.1,2.3"/>
			</g>
			<g>
				<defs>
					
						<rect id="SVGID_11_" x="310.3" y="316.8" transform="matrix(0.8661 -0.4999 0.4999 0.8661 -117.2183 198.1401)" width="1.9" height="2.1"/>
				</defs>
				<clipPath id="SVGID_12_">
					<use xlink:href="#SVGID_11_"  style="overflow:visible;"/>
				</clipPath>
				<line class="st8" x1="315.9" y1="312.2" x2="310.7" y2="318.7"/>
			</g>
		</g>
		<g>
			<g>
				<g>
					<defs>
						
							<rect id="SVGID_13_" x="255.7" y="301" transform="matrix(0.5 -0.866 0.866 0.5 -152.3206 393.485)" width="17.9" height="55.4"/>
					</defs>
					<clipPath id="SVGID_14_">
						<use xlink:href="#SVGID_13_"  style="overflow:visible;"/>
					</clipPath>
					<path class="st9" d="M257.7,328.2c1.7,4.2,4.2,8.2,8.5,10.7c8.5,4.9,19.1,2.3,23.8-5.9c4.7-8.1,1.6-18.7-6.8-23.6
						c-4.3-2.5-8.9-2.4-13.3-1.8"/>
					<rect x="246" y="305.7" transform="matrix(0.5 -0.866 0.866 0.5 -143.3855 372.2683)" class="st9" width="9.5" height="9.2"/>
					<line class="st9" x1="257.7" y1="328.2" x2="252.3" y2="316.7"/>
					<line class="st9" x1="270" y1="307.7" x2="256.8" y2="308.4"/>
				</g>
				<g>
					<defs>
						
							<rect id="SVGID_15_" x="264.4" y="285.2" transform="matrix(0.5 -0.866 0.866 0.5 -134.0726 393.4899)" width="18.6" height="55.4"/>
					</defs>
					<clipPath id="SVGID_16_">
						<use xlink:href="#SVGID_15_"  style="overflow:visible;"/>
					</clipPath>
					<path class="st10" d="M270,307c4.6-0.7,9.3-0.6,13.7,1.9c8.5,4.9,11.4,15.7,6.5,24.2c-4.9,8.5-15.7,11.4-24.2,6.5
						c-4.3-2.5-6.5-6.6-8.1-10.8"/>
					
						<rect x="245.8" y="305.7" transform="matrix(0.5 -0.866 0.866 0.5 -143.3842 372.2887)" class="st10" width="9.9" height="9.2"/>
					<line class="st10" x1="270" y1="307" x2="257.2" y2="308.3"/>
					<line class="st10" x1="257.8" y1="328.8" x2="252" y2="316.7"/>
				</g>
			</g>
			<line class="st4" x1="252.6" y1="309.4" x2="250.9" y2="312.4"/>
			<line class="st4" x1="250.5" y1="308.1" x2="248.7" y2="311.2"/>
			<line class="st4" x1="262.3" y1="320.3" x2="255.7" y2="314"/>
			<path class="st4" d="M263.5,317.5c0.2,0-1.5,0.2-1.8,0.8"/>
			<path class="st4" d="M261.8,318.1c-0.4,0.6-0.3,1.7,0.5,2.1"/>
			<g>
				<path class="st4" d="M263.8,314.9c0.8,0.4,1.1,1.3,0.8,1.9"/>
				<path class="st4" d="M262.6,317.7c1-0.1,1.8-0.6,2-1.1"/>
			</g>
			<g>
				<defs>
					
						<rect id="SVGID_17_" x="261.7" y="313.9" transform="matrix(0.4999 -0.8661 0.8661 0.4999 -141.2892 385.0904)" width="2.1" height="1.9"/>
				</defs>
				<clipPath id="SVGID_18_">
					<use xlink:href="#SVGID_17_"  style="overflow:visible;"/>
				</clipPath>
				<line class="st11" x1="255.5" y1="313.6" x2="263.8" y2="314.9"/>
			</g>
		</g>
	</g>
</g>
</svg>
