<?xml version="1.0" standalone="no"?>
<!DOCTYPE svg PUBLIC "-//W3C//DTD SVG 20010904//EN"
 "http://www.w3.org/TR/2001/REC-SVG-20010904/DTD/svg10.dtd">
<svg version="1.0" xmlns="http://www.w3.org/2000/svg"
 width="678.000000pt" height="578.000000pt" viewBox="0 0 678.000000 578.000000"
 preserveAspectRatio="xMidYMid meet">

<g transform="translate(0.000000,578.000000) scale(0.100000,-0.100000)"
fill="#000000" stroke="none">
<path d="M6016 5585 c-268 -156 -325 -185 -359 -185 -51 0 -822 65 -1027 86
-203 22 -481 15 -622 -15 -187 -40 -371 -119 -527 -226 l-82 -55 -82 57 c-145
99 -320 175 -501 214 -143 32 -436 37 -641 11 -88 -11 -367 -42 -620 -68
l-460 -47 -324 187 c-178 103 -328 188 -333 189 -8 2 -440 -734 -434 -740 2
-2 151 -89 331 -193 l329 -190 217 -462 c337 -721 339 -725 423 -853 59 -88
110 -150 195 -235 128 -127 221 -196 373 -274 l100 -51 3 -125 c2 -69 11 -165
20 -215 42 -239 170 -505 359 -750 35 -44 191 -258 349 -476 l287 -397 2 -383
3 -384 428 -3 427 -2 0 379 0 379 47 68 c114 168 532 766 581 832 127 172 224
354 282 531 50 150 70 275 70 427 l0 123 88 43 c340 166 572 432 761 875 119
278 433 978 445 990 6 6 153 93 326 193 173 100 318 185 322 189 10 9 -412
741 -426 741 -6 -1 -155 -84 -330 -185z m473 -211 c90 -157 164 -293 165 -302
1 -11 -83 -65 -274 -175 -256 -148 -275 -157 -288 -140 -44 61 -332 577 -325
583 10 11 546 320 553 319 3 0 79 -128 169 -285z m-5740 85 l278 -160 -165
-287 c-90 -158 -170 -292 -176 -299 -8 -9 -74 25 -283 146 -150 86 -275 160
-279 163 -3 4 65 130 151 280 177 308 183 318 191 318 3 0 130 -72 283 -161z
m3806 -49 c50 -6 321 -30 603 -54 282 -24 515 -46 516 -48 22 -26 360 -627
358 -638 0 -8 -76 -181 -167 -385 -92 -203 -201 -449 -242 -545 -133 -314
-228 -466 -393 -631 -108 -108 -196 -173 -328 -241 l-77 -40 -18 94 c-87 444
-370 825 -761 1024 l-93 48 -6 120 c-16 351 -153 674 -389 922 -49 50 -88 94
-88 97 0 9 157 107 235 145 133 66 316 117 485 135 75 8 279 6 365 -3z m-1774
-29 c174 -35 335 -102 480 -198 38 -25 69 -47 69 -48 0 -1 -35 -38 -77 -82
-100 -103 -180 -215 -248 -346 -108 -206 -153 -369 -162 -595 l-6 -143 -67
-34 c-219 -110 -435 -307 -572 -521 -87 -136 -174 -357 -199 -506 -7 -43 -17
-78 -22 -78 -23 0 -193 99 -269 155 -216 162 -374 376 -517 698 -33 73 -145
314 -250 537 -105 222 -191 410 -191 417 0 16 337 603 359 624 13 13 94 24
381 53 328 33 608 64 790 87 109 13 393 2 501 -20z m699 -383 c226 -233 362
-544 386 -880 l7 -97 -59 19 c-233 72 -588 66 -821 -14 l-73 -25 0 62 c0 199
74 465 182 652 77 133 262 355 296 355 7 0 44 -32 82 -72z m200 -1012 c41 -9
99 -24 128 -33 61 -19 61 -21 36 -154 -50 -265 -167 -497 -345 -683 l-85 -90
-83 80 c-154 146 -275 336 -341 532 -29 88 -60 221 -60 261 0 22 161 74 295
96 114 18 351 13 455 -9z m333 -117 c306 -155 548 -441 662 -782 42 -126 72
-274 59 -287 -15 -15 -191 -57 -291 -71 -108 -14 -309 -7 -418 16 -173 36
-420 137 -510 210 l-29 23 81 86 c185 195 317 463 361 731 9 58 18 105 20 105
1 0 31 -14 65 -31z m-1109 -244 c59 -188 185 -394 338 -550 54 -55 98 -101 98
-102 0 -7 -127 -86 -189 -117 -242 -122 -539 -170 -806 -131 -97 15 -259 56
-273 69 -21 22 56 300 122 439 115 242 336 475 573 604 l78 42 17 -87 c10 -48
29 -123 42 -167z m596 -761 c98 -62 200 -111 313 -149 181 -60 249 -70 477
-70 187 0 215 3 315 27 61 14 119 30 129 34 18 7 19 2 13 -127 -13 -280 -107
-537 -294 -807 -43 -62 -210 -301 -371 -532 l-293 -420 -367 2 -366 3 -239
330 c-131 182 -294 404 -361 495 -67 91 -140 192 -161 225 -102 160 -190 380
-220 549 -16 94 -21 276 -7 276 5 0 31 -7 58 -15 104 -33 274 -55 414 -55 295
0 569 82 800 238 40 28 79 48 84 44 6 -3 40 -25 76 -48z m270 -2449 l0 -325
-345 0 -345 0 0 325 0 325 345 0 345 0 0 -325z"/>
<path d="M6226 5385 c-10 -8 -23 -16 -29 -18 -5 -1 23 -60 63 -129 78 -133 75
-132 124 -95 19 14 17 19 -50 136 -38 66 -73 121 -79 121 -5 -1 -19 -7 -29
-15z"/>
<path d="M6050 5283 c-14 -9 -27 -18 -28 -19 -2 -1 28 -59 68 -127 l72 -125
34 20 c19 11 34 22 34 25 0 15 -136 242 -145 243 -6 0 -22 -8 -35 -17z"/>
<path d="M447 5238 c-36 -62 -67 -119 -69 -126 -2 -6 11 -21 29 -33 l32 -20
14 23 c43 69 127 217 127 225 0 8 -51 43 -63 43 -3 0 -34 -51 -70 -112z"/>
<path d="M635 5168 c-26 -46 -59 -102 -72 -125 l-24 -42 30 -15 c16 -9 34 -16
40 -16 11 0 141 220 141 238 0 9 -49 42 -63 42 -2 0 -26 -37 -52 -82z"/>
<path d="M5377 4947 l-338 -102 6 -35 c9 -48 11 -50 43 -40 37 10 92 -12 92
-37 0 -10 -7 -47 -16 -83 -31 -121 4 -209 89 -225 69 -13 106 2 169 67 32 33
58 67 58 75 0 21 -30 75 -39 71 -5 -2 -30 -29 -56 -61 -52 -65 -82 -81 -119
-67 -30 11 -37 48 -19 110 16 57 17 162 1 178 -6 6 -10 13 -7 16 2 2 118 38
257 79 140 41 256 78 259 81 3 3 2 21 -1 41 -5 24 -12 35 -24 34 -9 -1 -169
-47 -355 -102z"/>
<path d="M962 4859 c-20 -25 -22 -32 -11 -45 7 -9 126 -123 265 -254 l251
-239 28 29 27 29 -21 27 c-11 15 -21 41 -21 59 0 34 16 45 85 61 76 17 151 78
161 130 3 18 1 48 -5 67 -13 39 -74 102 -90 93 -6 -4 -11 -3 -11 2 0 10 -129
34 -142 26 -10 -7 -41 -65 -36 -69 2 -2 37 -9 78 -16 85 -13 120 -37 120 -80
0 -22 -8 -31 -43 -48 -24 -12 -50 -21 -58 -21 -32 0 -118 -50 -132 -76 l-14
-27 -201 192 c-110 105 -202 191 -204 190 -1 0 -14 -13 -26 -30z"/>
<path d="M3250 1644 c-66 -56 -76 -118 -34 -226 l26 -68 44 0 c24 0 44 2 44 5
0 2 -13 38 -30 80 -36 91 -36 97 -7 131 31 35 51 28 134 -47 66 -60 97 -75
133 -66 11 3 20 4 20 3 0 -5 -121 -511 -126 -528 -4 -13 4 -19 33 -27 20 -6
40 -7 44 -3 6 6 155 619 166 684 5 24 1 28 -33 37 -40 11 -54 4 -54 -31 0 -20
-37 -48 -63 -48 -10 0 -42 22 -70 49 -93 87 -167 105 -227 55z"/>
<path d="M3290 510 l0 -40 145 0 145 0 0 40 0 40 -145 0 -145 0 0 -40z"/>
<path d="M3290 310 l0 -40 145 0 145 0 0 40 0 40 -145 0 -145 0 0 -40z"/>
</g>
</svg>
